PathFileType	4	(X/Y/Z)	21_coords_data.trc
DataRate	CameraRate	NumFrames	NumMarkers	Units	OrigDataRate	OrigDataStartFrame	OrigNumFrames
30.0	30.0	7	21	m	30.0	52	62
Frame#	Time	THUMB_TIP	THUMB_IP	THUMB_MCP	THUMB_CMC	INDEX_TIP	INDEX_DIP	INDEX_PIP	INDEX_MCP	MIDDLE_TIP	MIDDLE_DIP	MIDDLE_PIP	MIDDLE_MCP	RING_TIP	RING_DIP	RING_PIP	RING_MCP	PINKY_TIP	PINKY_DIP	PINKY_PIP	PINKY_MCP	WRIST
X1	Y1	Z1	X2	Y2	Z2	X3	Y3	Z3	X4	Y4	Z4	X5	Y5	Z5	X6	Y6	Z6	X7	Y7	Z7	X8	Y8	Z8	X9	Y9	Z9	X10	Y10	Z10	X11	Y11	Z11	X12	Y12	Z12	X13	Y13	Z13	X14	Y14	Z14	X15	Y15	Z15	X16	Y16	Z16	X17	Y17	Z17	X18	Y18	Z18	X19	Y19	Z19	X20	Y20	Z20	X21	Y21	Z21
51	1.7	-0.015329500198364258	-0.009928239822387695	0.9032109985351563	-0.025333599090576173	0.0068211698532104495	0.9254429931640625	-0.039266799926757814	0.021921300888061525	0.9513560180664062	-0.053259498596191404	0.047075599670410154	0.9746630249023438	0.023496599197387696	0.05692160034179688	0.8563679809570313	0.004404809951782227	0.054511199951171874	0.8703400268554687	-0.015652000427246095	0.052789299011230466	0.8839169921875	-0.04596289825439453	0.05116490173339844	0.9146439819335938	0.028389699935913087	0.09028700256347656	0.8616820068359375	0.006242380142211914	0.08560929870605469	0.8709349975585937	-0.0205177001953125	0.08144850158691407	0.8831519775390625	-0.05105110168457031	0.07467140197753906	0.9161229858398438	0.023607200622558593	0.10963999938964844	0.8746010131835937	0.00172802996635437	0.10598699951171875	0.8836119995117188	-0.023495399475097656	0.10150700378417969	0.8951530151367187	-0.05120899963378906	0.09309690093994141	0.924572021484375	0.005118639945983887	0.12866600036621093	0.8936599731445313	-0.011779800415039062	0.1240780029296875	0.9049929809570313	-0.027203399658203124	0.11846900177001952	0.91593701171875	-0.04704690170288086	0.10804399871826172	0.9367830200195313	-0.08429419708251953	0.06554389953613281	0.9970390014648437
52	1.7333333333333334	-0.015117899894714355	-0.010297900199890136	0.9035330200195313	-0.0251924991607666	0.006466199874877929	0.9256389770507812	-0.03926169967651367	0.021677600860595704	0.95147998046875	-0.053415401458740235	0.04707450103759766	0.9749739990234375	0.023535600662231447	0.056493000030517576	0.8563820190429687	0.0044262299537658695	0.05415840148925781	0.8703510131835938	-0.015530799865722656	0.052449901580810546	0.8841329956054688	-0.04602289962768555	0.050839000701904294	0.914635986328125	0.028447999954223632	0.08983499908447265	0.8616339721679688	0.006267809867858886	0.08520899963378906	0.870916015625	-0.02046470069885254	0.08107769775390625	0.883031982421875	-0.051123500823974606	0.07436599731445312	0.9160640258789062	0.023609500885009765	0.10923600006103516	0.8745260009765625	0.001638839960098266	0.10559200286865235	0.8835050048828125	-0.023624500274658202	0.10110700225830078	0.8951079711914063	-0.051402599334716796	0.09270220184326172	0.924344970703125	0.005094309806823729	0.1283179931640625	0.893593017578125	-0.01175	0.12382099914550782	0.9049390258789063	-0.0273080997467041	0.11823899841308594	0.91589697265625	-0.04716479873657226	0.10774900054931641	0.9366430053710938	-0.0842531967163086	0.06529530334472657	0.996718994140625
53	1.7666666666666666	-0.01487090015411377	-0.010531299591064453	0.9036640014648437	-0.025107200622558595	0.006249750137329101	0.9257479858398437	-0.0392333984375	0.021457099914550783	0.951530029296875	-0.05343090057373047	0.04656600189208984	0.9746619873046874	0.023978099822998047	0.05630440139770508	0.8569329833984375	0.004745969772338867	0.05394879913330078	0.8707379760742188	-0.015522500038146973	0.052227500915527345	0.8841389770507813	-0.04601839828491211	0.05061669921875	0.91460302734375	0.028565299987792968	0.08952870178222656	0.861927978515625	0.006458040237426758	0.08491899871826172	0.8711090087890625	-0.020402000427246093	0.08079969787597656	0.8830750122070312	-0.0512047004699707	0.07407080078125	0.9160009765625	0.023712200164794923	0.10893699645996094	0.8747490234375	0.001732920050621032	0.10529199981689454	0.883625	-0.02359939956665039	0.10084400177001954	0.8950869750976562	-0.05145199966430664	0.09238140106201172	0.9244320068359375	0.005203320026397705	0.12796399688720703	0.8937119750976562	-0.01177429962158203	0.12349299621582031	0.90497802734375	-0.027260400772094726	0.11796499633789062	0.9158569946289062	-0.047102401733398434	0.10748699951171875	0.9365579833984375	-0.0844529037475586	0.0650426025390625	0.996697998046875
54	1.8	-0.014829400062561036	-0.010754199981689453	0.9036740112304688	-0.02497890090942383	0.006099420070648193	0.9258309936523438	-0.03927050018310547	0.021273300170898436	0.9516430053710937	-0.053372798919677736	0.04644670104980469	0.9747529907226562	0.024311800003051758	0.056263099670410155	0.8573280029296875	0.005009789943695068	0.05387429809570313	0.8710059814453125	-0.015300000190734863	0.05210150146484375	0.884281982421875	-0.04595159912109375	0.05041130065917969	0.9146270141601562	0.028697200775146484	0.08933260345458985	0.8620269775390625	0.006482659816741943	0.08473529815673828	0.8711420288085937	-0.020343900680541992	0.08064230346679688	0.8831810302734375	-0.05111349868774414	0.07391419982910157	0.9159869995117188	0.02380649948120117	0.10874600219726563	0.8748709716796875	0.001974220037460327	0.10510900115966797	0.8835029907226563	-0.023515499114990235	0.10077999877929687	0.89502099609375	-0.05137889862060547	0.0922499008178711	0.924385986328125	0.00537047004699707	0.12776499938964844	0.8936699829101562	-0.011687800407409668	0.12326200103759766	0.9049879760742188	-0.0272992000579834	0.11772000122070313	0.9157509765625	-0.047186298370361326	0.10727799987792969	0.9365910034179687	-0.08438159942626954	0.06485769653320313	0.9968569946289062
55	1.8333333333333333	-0.014858099937438965	-0.011005399703979492	0.9037529907226562	-0.02504010009765625	0.005854939937591553	0.9259990234375	-0.03921939849853515	0.02105970001220703	0.9515679931640625	-0.05334960174560547	0.0465614013671875	0.9748599853515625	0.0244591007232666	0.0560880012512207	0.8575490112304688	0.005042419910430908	0.05367559814453125	0.8711110229492187	-0.015223199844360352	0.05187400054931641	0.8843270263671875	-0.04609249877929687	0.050161399841308595	0.914635986328125	0.028795000076293945	0.08903849792480469	0.862406982421875	0.006585609912872314	0.08449469757080078	0.8713350219726562	-0.020234399795532227	0.08044149780273438	0.8831259765625	-0.05111230087280273	0.07367680358886719	0.91597802734375	0.02383449935913086	0.10844999694824219	0.87506298828125	0.0018528200387954712	0.1049469985961914	0.8837639770507812	-0.02359160041809082	0.10056600189208985	0.8949569702148438	-0.05144459915161133	0.09200499725341797	0.9244130249023438	0.005402029991149903	0.1275800018310547	0.8937730102539062	-0.011515800476074218	0.12311399841308594	0.9049149780273438	-0.027304000854492187	0.11766400146484375	0.9158090209960937	-0.047210899353027344	0.107177001953125	0.9365980224609375	-0.08429060363769532	0.0648573989868164	0.996801025390625
56	1.8666666666666667	-0.014755499839782716	-0.011009300231933594	0.9039030151367188	-0.024972000122070313	0.005828929901123047	0.9260590209960937	-0.0391963005065918	0.021023199081420897	0.9516370239257812	-0.053367198944091795	0.04628219985961914	0.9748980102539062	0.024455499649047852	0.055927501678466794	0.8575289916992187	0.005051350116729737	0.053557300567626955	0.8711519775390625	-0.015218099594116212	0.051778701782226565	0.8843679809570313	-0.046132999420166014	0.05001129913330078	0.9145549926757812	0.028998899459838866	0.08892150115966797	0.862281005859375	0.0067013101577758786	0.08437429809570313	0.8714630126953125	-0.020177900314331056	0.08032759857177735	0.8832670288085938	-0.051083301544189455	0.07355460357666016	0.9160659790039063	0.023992599487304686	0.10834200286865234	0.8752750244140625	0.0020366098880767822	0.10476699829101563	0.8838699951171874	-0.023472299575805666	0.10046499633789062	0.895135986328125	-0.05136930084228516	0.0919093017578125	0.9243469848632813	0.0055475101470947264	0.12739499664306642	0.8940809936523437	-0.011523799896240234	0.1229530029296875	0.905155029296875	-0.027201000213623046	0.11746900177001954	0.9158289794921874	-0.047415401458740236	0.10687999725341797	0.9366370239257813	-0.08437490081787109	0.06462830352783203	0.99685400390625
57	1.9	-0.014596799850463867	-0.011061800003051759	0.9039769897460938	-0.02486210060119629	0.0057030200958251955	0.9260130004882813	-0.03909140014648437	0.020949899673461916	0.95172900390625	-0.05325	0.046201099395751954	0.9748610229492187	0.024513999938964845	0.055922000885009766	0.8575449829101562	0.005174699783325195	0.053488399505615236	0.871125	-0.015130399703979492	0.051719799041748046	0.8843729858398437	-0.045820098876953125	0.050014999389648436	0.9147789916992187	0.029092899322509767	0.08893540191650391	0.8624600219726563	0.006786940097808838	0.0843582992553711	0.8715130004882813	-0.020080799102783202	0.08027089691162109	0.8832470092773438	-0.050960201263427735	0.07349949645996094	0.9160759887695312	0.02407819938659668	0.10831400299072266	0.8752449951171875	0.002175610065460205	0.10470700073242188	0.8837470092773437	-0.023414499282836915	0.1003489990234375	0.895135986328125	-0.05128820037841797	0.09185079956054687	0.9243189697265625	0.005650730133056641	0.12733699798583983	0.894093017578125	-0.011392800331115723	0.12291600036621093	0.905114990234375	-0.027215200424194334	0.1174520034790039	0.9157760009765625	-0.04709460067749023	0.10689900207519532	0.9365770263671875	-0.08426599884033203	0.06453710174560547	0.9966799926757812
